<svg width="751" height="454" viewBox="0 0 751 454" fill="none" xmlns="http://www.w3.org/2000/svg">
<path fill-rule="evenodd" clip-rule="evenodd" d="M498 58C514.016 58 527 45.0162 527 29C527 12.9838 514.016 0 498 0C481.984 0 469 12.9838 469 29C469 45.0162 481.984 58 498 58ZM65.5 276.5C-8.90005 342.9 -4.50002 448.167 6.99998 492.5H829C848.333 333.167 864.1 14.5 772.5 14.5C701.662 14.5 672.736 54.1149 650.675 84.3276C637.077 102.95 626.088 118 609.5 118C589.672 118 578.362 114.78 566.054 111.275C551.359 107.09 535.239 102.5 501.5 102.5C439.5 102.5 390 135.5 363.5 161C357.775 166.509 352.447 172.414 347.147 178.288C327.916 199.603 309.062 220.5 273 220.5C264.683 220.5 255.63 219.617 245.83 218.662C201.428 214.332 141.685 208.507 65.5 276.5ZM295 152.5C295 177.629 274.629 198 249.5 198C224.371 198 204 177.629 204 152.5C204 127.371 224.371 107 249.5 107C274.629 107 295 127.371 295 152.5Z" fill="url(#paint0_linear_1_20)"/>
<defs>
<linearGradient id="paint0_linear_1_20" x1="-8.45648e-10" y1="493" x2="768.5" y2="493" gradientUnits="userSpaceOnUse">
<stop stop-color="#0B6AE9"/>
<stop offset="1" stop-color="#C992E6"/>
</linearGradient>
</defs>
</svg>
